<?xml version="1.0" encoding="UTF-8" standalone="no"?>
<svg
   xmlns:dc="http://purl.org/dc/elements/1.1/"
   xmlns:cc="http://creativecommons.org/ns#"
   xmlns:rdf="http://www.w3.org/1999/02/22-rdf-syntax-ns#"
   xmlns:svg="http://www.w3.org/2000/svg"
   xmlns="http://www.w3.org/2000/svg"
   xmlns:sodipodi="http://sodipodi.sourceforge.net/DTD/sodipodi-0.dtd"
   xmlns:inkscape="http://www.inkscape.org/namespaces/inkscape"
   inkscape:version="1.0 (4035a4fb49, 2020-05-01)"
   inkscape:export-ydpi="96"
   inkscape:export-xdpi="96"
   inkscape:export-filename="c:\Work\Git\restart-ts-server-button\images\icon.png"
   sodipodi:docname="icon.svg"
   id="svg8"
   version="1.1"
   viewBox="0 0 33.86624 33.86624"
   height="128"
   width="128">
  <defs
     id="defs2" />
  <sodipodi:namedview
     inkscape:document-rotation="0"
     inkscape:guide-bbox="true"
     scale-x="1"
     inkscape:window-maximized="1"
     inkscape:window-y="-9"
     inkscape:window-x="-9"
     inkscape:window-height="1361"
     inkscape:window-width="3440"
     showguides="true"
     objecttolerance="20"
     inkscape:pagecheckerboard="false"
     units="px"
     showgrid="false"
     inkscape:current-layer="layer1"
     inkscape:document-units="px"
     inkscape:cy="207.65351"
     inkscape:cx="-238.38583"
     inkscape:zoom="1.4142136"
     inkscape:pageshadow="2"
     inkscape:pageopacity="0.0"
     borderopacity="1.0"
     bordercolor="#666666"
     pagecolor="#ffffff"
     id="base">
    <inkscape:grid
       empspacing="2"
       dotted="true"
       snapvisiblegridlinesonly="true"
       id="grid3713"
       type="xygrid" />
    <sodipodi:guide
       position="1.1225179,16.560756"
       orientation="0,-1"
       id="guide889" />
    <sodipodi:guide
       position="17.211941,31.340575"
       orientation="1,0"
       id="guide891" />
  </sodipodi:namedview>
  <metadata
     id="metadata5">
    <rdf:RDF>
      <cc:Work
         rdf:about="">
        <dc:format>image/svg+xml</dc:format>
        <dc:type
           rdf:resource="http://purl.org/dc/dcmitype/StillImage" />
        <dc:title />
      </cc:Work>
    </rdf:RDF>
  </metadata>
  <g
     transform="translate(0,-263.13333)"
     id="layer1"
     inkscape:groupmode="layer"
     inkscape:label="Layer 1">
    <circle
       r="16.933332"
       style="fill:#3178c6;fill-opacity:1;stroke-width:0.342105"
       cy="280.06668"
       cx="16.933332"
       id="path3715" />
    <path
       id="path2"
       d="M 8.7318355,271.74736 H 23.144701 l 0.55434,0.55434 v 7.20644 h -1.108682 v -3.32605 H 9.286177 v 7.76078 h 7.760773 v 1.10867 H 8.7318355 L 8.177495,284.4972 v -12.1955 z m 0.5543415,3.32604 h 13.304182 v -2.21735 H 9.286177 Z m 5.543409,7.76078 v -1.2129 a 1.8104775,1.8104775 0 0 1 -0.519972,-0.29374 l -1.047704,0.59755 -0.554341,-0.95344 1.038834,-0.60647 a 1.7406306,1.7406306 0 0 1 0,-0.60642 l -1.038834,-0.60538 0.554341,-0.95343 1.047704,0.59868 c 0.167404,-0.13284 0.341471,-0.23173 0.519972,-0.295 v -1.2129 h 1.108682 v 1.2129 a 1.6408492,1.6408492 0 0 1 0.519972,0.29374 l 1.047704,-0.59755 0.554341,0.95344 -1.038837,0.60647 a 1.7406306,1.7406306 0 0 1 0,0.60533 l 1.038837,0.60647 -0.554341,0.95342 -1.047704,-0.59867 a 2.0033882,2.0033882 0 0 1 -0.519972,0.295 v 1.2129 z m -0.277192,-2.77171 c 0,0.23047 0.08091,0.42684 0.24279,0.58871 a 0.80157699,0.80157699 0 0 0 0.58871,0.24304 0.80157699,0.80157699 0 0 0 0.588709,-0.24304 0.80157699,0.80157699 0 0 0 0.24279,-0.58871 0.80157699,0.80157699 0 0 0 -0.24279,-0.58869 0.80157699,0.80157699 0 0 0 -0.588709,-0.24263 0.80157699,0.80157699 0 0 0 -0.58871,0.24263 0.80157699,0.80157699 0 0 0 -0.24279,0.58869 z m 5.913706,6.09776 v -1.2129 a 1.8115862,1.8115862 0 0 1 -0.519971,-0.29375 l -1.047704,0.59755 -0.554341,-0.95344 1.039944,-0.60646 a 1.7428478,1.7428478 0 0 1 0,-0.60642 l -1.039944,-0.60538 0.554341,-0.95343 1.047704,0.59867 c 0.167405,-0.13284 0.341472,-0.23172 0.521082,-0.295 v -1.2129 h 1.108682 v 1.2129 a 1.6475012,1.6475012 0 0 1 0.518861,0.29375 l 1.047708,-0.59756 0.554342,0.95344 -1.038837,0.60647 a 1.7317611,1.7317611 0 0 1 0,0.60534 l 1.038837,0.60646 -0.554342,0.95343 -1.047708,-0.59867 a 2.0022794,2.0022794 0 0 1 -0.519972,0.295 v 1.2129 z m -0.277149,-2.77171 c 0,0.23047 0.08091,0.42683 0.242789,0.58871 a 0.80157699,0.80157699 0 0 0 0.58871,0.24304 0.80157699,0.80157699 0 0 0 0.58871,-0.24304 0.80157699,0.80157699 0 0 0 0.24392,-0.58871 0.80157699,0.80157699 0 0 0 -0.24392,-0.5887 0.80157699,0.80157699 0 0 0 -0.5876,-0.24263 0.80157699,0.80157699 0 0 0 -0.58982,0.24263 0.80157699,0.80157699 0 0 0 -0.242789,0.5887 z"
       clip-rule="evenodd"
       fill-rule="evenodd"
       style="fill:#ffffff;fill-opacity:1;stroke-width:1.10869" />
    <path
       id="path2-6"
       d="m 26.432699,285.37672 a 2.9021296,2.9021296 0 0 1 -5.552741,1.18278 l -0.897081,0.36438 a 3.8701511,3.8701511 0 0 0 7.417199,-1.54716 3.8695061,3.8695061 0 0 0 -6.932865,-2.36427 v -1.18278 h -0.967377 v 2.57967 l 0.483689,0.4837 h 2.257212 v -0.96738 H 21.01668 a 2.9021296,2.9021296 0 0 1 5.416019,1.45106 z"
       clip-rule="evenodd"
       fill-rule="evenodd"
       style="fill:#ffffff;fill-opacity:1;stroke:#3178c6;stroke-width:2.91038;stroke-miterlimit:4;stroke-dasharray:none;stroke-opacity:1;paint-order:stroke markers fill" />
  </g>
</svg>
